<svg width="80" height="80" viewBox="0 0 80 80" fill="none" xmlns="http://www.w3.org/2000/svg">
<g clip-path="url(#clip0_1366_2262)">
<path d="M37.1485 39.3689V48.5761H34.2266V25.8398H41.9726C43.9358 25.8398 45.6097 26.4943 46.9794 27.8031C48.3796 29.1118 49.0796 30.7097 49.0796 32.5968C49.0796 34.5295 48.3796 36.1274 46.9794 37.4209C45.625 38.7144 43.9511 39.3537 41.9726 39.3537H37.1485V39.3689ZM37.1485 28.64V36.5687H42.0336C43.1901 36.5687 44.1642 36.1731 44.925 35.3969C45.7012 34.6207 46.0968 33.6773 46.0968 32.612C46.0968 31.5619 45.7012 30.6335 44.925 29.8575C44.164 29.0509 43.2054 28.6552 42.0336 28.6552H37.1485V28.64Z" fill="#383E41"/>
<path d="M56.719 32.5059C58.88 32.5059 60.5845 33.0841 61.8323 34.2407C63.0803 35.3973 63.7041 36.9799 63.7041 38.9889V48.5764H60.9192V46.4155H60.7975C59.5952 48.196 57.9821 49.0787 55.9733 49.0787C54.2537 49.0787 52.8231 48.5764 51.6665 47.5568C50.5099 46.5372 49.9316 45.274 49.9316 43.7522C49.9316 42.1391 50.5404 40.8608 51.7579 39.9172C52.9754 38.9585 54.6038 38.4868 56.6278 38.4868C58.3626 38.4868 59.7933 38.8064 60.9041 39.4454V38.7759C60.9041 37.7563 60.5085 36.9041 59.7018 36.1888C58.8952 35.4736 57.9518 35.1235 56.8712 35.1235C55.2428 35.1235 53.9493 35.8083 53.0057 37.1932L50.4338 35.5801C51.8491 33.5255 53.9493 32.5059 56.719 32.5059ZM52.9449 43.7978C52.9449 44.5587 53.2645 45.198 53.9188 45.7001C54.5581 46.2023 55.319 46.461 56.1864 46.461C57.4192 46.461 58.5148 46.0044 59.4736 45.0913C60.4325 44.1782 60.9194 43.1129 60.9194 41.8803C60.0062 41.165 58.7432 40.7997 57.1148 40.7997C55.9278 40.7997 54.9386 41.0889 54.1472 41.6519C53.3406 42.2454 52.9449 42.9608 52.9449 43.7978Z" fill="#383E41"/>
<path d="M79.5923 33.0078L69.8525 55.4092H66.8392L70.4611 47.5717L64.0391 33.0078H67.2196L71.8461 44.178H71.907L76.4116 33.0078H79.5923Z" fill="#383E41"/>
<path d="M25.2809 34.7715H13.0332V39.7935L20.0869 39.7951C19.8008 41.4661 18.8801 42.8905 17.4694 43.8401V43.8411C17.4698 43.8408 17.4704 43.8404 17.4709 43.8401L17.3439 46.8418L21.6697 47.0969C21.6691 47.0973 21.6685 47.098 21.668 47.0984C24.1196 44.8294 25.5245 41.4752 25.5245 37.5124C25.5243 36.5597 25.4391 35.6481 25.2809 34.7715Z" fill="#0085F7"/>
<path d="M17.4698 43.8408C17.4693 43.8411 17.4687 43.8414 17.4682 43.8417C16.2997 44.6294 14.7951 45.0902 13.0352 45.0902C9.63387 45.0902 6.74851 42.7983 5.71521 39.709H5.71475C5.7149 39.7095 5.71506 39.7101 5.71521 39.7106L2.10389 39.1387L1.38477 43.0702C3.53079 47.3278 7.94068 50.2492 13.0353 50.2492C16.5559 50.2492 19.5137 49.0917 21.667 47.0989C21.6676 47.0985 21.6682 47.098 21.6687 47.0974L17.4698 43.8408Z" fill="#00A94B"/>
<path d="M5.30769 37.2158C5.30769 36.3484 5.45226 35.5099 5.7156 34.7216L4.58795 31.3613H1.38437C0.497206 33.1221 -0.00195312 35.1096 -0.00195312 37.2158C-0.00195312 39.3221 0.49876 41.3095 1.38437 43.0703L1.385 43.0699L5.7156 39.7101C5.71545 39.7096 5.71529 39.7091 5.71513 39.7085C5.45211 38.9208 5.30769 38.0828 5.30769 37.2158Z" fill="#FFBB00"/>
<path d="M13.036 24.1816C7.94239 24.1816 3.53064 27.1035 1.38477 31.3617L5.71584 34.722C6.74913 31.6326 9.63449 29.3408 13.0358 29.3408C14.9578 29.3408 16.6791 30.0029 18.0381 31.2964L21.759 27.5786C19.4992 25.4736 16.5529 24.1816 13.036 24.1816Z" fill="#FF4031"/>
</g>
<defs>
<clipPath id="clip0_1366_2262">
<rect width="79.5918" height="79.5918" fill="white"/>
</clipPath>
</defs>
</svg>
