<svg width="55" height="34" viewBox="0 0 55 34" fill="none" xmlns="http://www.w3.org/2000/svg">
<g clip-path="url(#clip0_1366_2243)">
<path d="M34.3188 3.56836H19.7109V29.7847H34.3188V3.56836Z" fill="#FF5F00"/>
<path d="M20.6365 16.6766C20.6365 11.5815 23.0016 6.71809 26.9898 3.56843C19.7554 -2.12875 9.2748 -0.87815 3.57077 6.39386C-2.13326 13.6196 -0.881156 24.0876 6.3996 29.7847C12.4746 34.5555 20.9611 34.5555 27.0361 29.7847C23.0016 26.6351 20.6365 21.7716 20.6365 16.6766Z" fill="#EB001B"/>
<path d="M54.023 16.6766C54.023 25.894 46.5568 33.3513 37.3283 33.3513C33.572 33.3513 29.9548 32.1007 27.0332 29.7847C34.2676 24.0876 35.5197 13.6196 29.8157 6.34755C28.9809 5.32854 28.0534 4.35585 27.0332 3.56843C34.2676 -2.12875 44.7945 -0.87815 50.4522 6.39386C52.7709 9.31193 54.023 12.9248 54.023 16.6766Z" fill="#F79E1B"/>
<path d="M52.4516 27.0059V26.4501H52.6834V26.3574H52.127V26.4501H52.3588V27.0059H52.4516ZM53.5182 27.0059V26.3574H53.3327L53.1472 26.8206L52.9617 26.3574H52.7762V27.0059H52.9153V26.4964L53.1008 26.9132H53.2399L53.4254 26.4964V27.0059H53.5182Z" fill="#F79E1B"/>
</g>
<defs>
<clipPath id="clip0_1366_2243">
<rect width="54.026" height="33.3494" fill="white"/>
</clipPath>
</defs>
</svg>
