<svg width="61" height="20" viewBox="0 0 61 20" fill="none" xmlns="http://www.w3.org/2000/svg">
<g clip-path="url(#clip0_1366_2250)">
<path d="M39.6003 0C35.2904 0 31.4208 2.24263 31.4208 6.35798C31.4208 11.0976 38.2564 11.4212 38.2564 13.7795C38.2564 14.7736 37.0978 15.6753 35.1514 15.6753C32.3708 15.6753 30.2853 14.4268 30.2853 14.4268L29.4048 18.5884C29.4048 18.5884 31.7915 19.6519 34.9892 19.6519C39.7162 19.6519 43.4237 17.3168 43.4237 13.109C43.4237 8.1151 36.5649 7.79142 36.5649 5.59503C36.5649 4.80895 37.5149 3.95351 39.4613 3.95351C41.6626 3.95351 43.47 4.85519 43.47 4.85519L44.3505 0.832318C44.3274 0.832318 42.3578 0 39.6003 0ZM0.115858 0.300559L0 0.901678C0 0.901678 1.80739 1.22536 3.45257 1.89583C5.56119 2.65879 5.70022 3.09807 6.07097 4.46215L9.94064 19.3283H15.1311L23.079 0.300559H17.9117L12.7907 13.2477L10.7053 2.26575C10.5199 1.01728 9.54672 0.300559 8.34179 0.300559H0.115858ZM25.1644 0.300559L21.1094 19.3283H26.0449L30.0768 0.300559H25.1644ZM52.646 0.300559C51.4642 0.300559 50.8386 0.924798 50.3752 2.03455L43.1456 19.3283H48.3129L49.3093 16.4383H55.6119L56.2144 19.3283H60.7792L56.8169 0.300559H52.646ZM53.318 5.45631L54.8473 12.6004H50.7459L53.318 5.45631Z" fill="black"/>
</g>
<defs>
<clipPath id="clip0_1366_2250">
<rect width="60.7792" height="19.6519" fill="white"/>
</clipPath>
</defs>
</svg>
