<svg width="61" height="61" viewBox="0 0 61 61" fill="none" xmlns="http://www.w3.org/2000/svg">
<g clip-path="url(#clip0_1366_2252)">
<path d="M11.4798 20.8229C12.1954 19.9278 12.6809 18.7261 12.5529 17.498C11.5054 17.5502 10.2272 18.1892 9.48712 19.0848C8.82258 19.8519 8.2345 21.104 8.38787 22.2805C9.56357 22.3825 10.7384 21.6928 11.4798 20.8229Z" fill="black"/>
<path d="M12.539 22.5107C10.8314 22.409 9.37942 23.4799 8.56389 23.4799C7.748 23.4799 6.49917 22.562 5.1485 22.5867C3.39053 22.6126 1.75934 23.6065 0.867241 25.1874C-0.96765 28.3499 0.383026 33.0411 2.16735 35.6167C3.03381 36.8909 4.07821 38.2941 5.45417 38.2436C6.75428 38.1926 7.2639 37.4017 8.84416 37.4017C10.4233 37.4017 10.8824 38.2436 12.2586 38.2181C13.6858 38.1926 14.5781 36.9432 15.4445 35.6676C16.4386 34.215 16.8455 32.8124 16.8711 32.7354C16.8454 32.7099 14.119 31.6639 14.0937 28.5277C14.068 25.9018 16.2343 24.6526 16.3363 24.5752C15.1131 22.7661 13.2016 22.562 12.539 22.5107Z" fill="black"/>
<path d="M27.4117 18.957C31.1233 18.957 33.7077 21.5155 33.7077 25.2403C33.7077 28.9785 31.07 31.5502 27.3186 31.5502H23.2093V38.0853H20.2402V18.957H27.4117ZM23.2092 29.058H26.6159C29.2009 29.058 30.6721 27.6663 30.6721 25.2536C30.6721 22.8412 29.2009 21.4625 26.6292 21.4625H23.2092V29.058Z" fill="black"/>
<path d="M34.4805 34.1223C34.4805 31.683 36.3495 30.1851 39.6638 29.9996L43.4813 29.7743V28.7007C43.4813 27.1497 42.434 26.2218 40.6846 26.2218C39.0272 26.2218 37.9932 27.017 37.7417 28.2632H35.0375C35.1965 25.7445 37.3437 23.8887 40.7905 23.8887C44.1706 23.8887 46.3312 25.6782 46.3312 28.4751V38.0856H43.5871V35.7924H43.5211C42.7126 37.3434 40.9494 38.3242 39.1202 38.3242C36.3894 38.3242 34.4805 36.6274 34.4805 34.1223ZM43.4811 32.863V31.7628L40.0478 31.9748C38.3378 32.0942 37.3702 32.8498 37.3702 34.0428C37.3702 35.2622 38.3776 36.0577 39.9153 36.0577C41.9169 36.0575 43.4811 34.6789 43.4811 32.863Z" fill="black"/>
<path d="M48.9256 43.2159V40.8961C49.1373 40.949 49.6144 40.949 49.8532 40.949C51.1787 40.949 51.8946 40.3924 52.3318 38.9608C52.3318 38.9342 52.584 38.1124 52.584 38.0991L47.5469 24.1406H50.6484L54.1749 35.4877H54.2276L57.7541 24.1406H60.7761L55.5529 38.8148C54.3603 42.1953 52.9816 43.2822 50.0919 43.2822C49.8532 43.2822 49.1372 43.2556 48.9256 43.2159Z" fill="black"/>
</g>
<defs>
<clipPath id="clip0_1366_2252">
<rect width="60.7792" height="60.7792" fill="white"/>
</clipPath>
</defs>
</svg>
