<svg width="20" height="18" viewBox="0 0 20 18" fill="none" xmlns="http://www.w3.org/2000/svg">
<path d="M1.0625 9.8125H18.9375C19.3862 9.8125 19.75 9.44873 19.75 9C19.75 8.55127 19.3862 8.1875 18.9375 8.1875H1.0625C0.613769 8.1875 0.25 8.55127 0.25 9C0.25 9.44873 0.613769 9.8125 1.0625 9.8125Z" fill="#1C1C1C"/>
<path d="M17.7885 9L11.0505 15.738C10.8981 15.8903 10.8125 16.097 10.8125 16.3125C10.8125 16.528 10.8981 16.7347 11.0505 16.887C11.2028 17.0394 11.4095 17.125 11.625 17.125C11.8405 17.125 12.0472 17.0394 12.1995 16.887L19.512 9.57452C19.8293 9.25722 19.8293 8.74278 19.512 8.42548L12.1995 1.11298C12.0472 0.960602 11.8405 0.875 11.625 0.875C11.4095 0.875 11.2028 0.960602 11.0505 1.11298C10.8981 1.26535 10.8125 1.47201 10.8125 1.6875C10.8125 1.90299 10.8981 2.10965 11.0505 2.26202L17.7885 9Z" fill="#1C1C1C"/>
</svg>
