<svg width="42" height="43" viewBox="0 0 42 43" fill="none" xmlns="http://www.w3.org/2000/svg">
<path d="M8.54469 25.5533C6.36007 25.5508 4.26564 24.6818 2.72089 23.1371C1.17613 21.5923 0.307185 19.4979 0.304688 17.3133V15.2533C0.304688 14.707 0.521723 14.183 0.908047 13.7967C1.29437 13.4104 1.81834 13.1934 2.36469 13.1934H14.7247C15.271 13.1934 15.795 13.4104 16.1813 13.7967C16.5677 14.183 16.7847 14.707 16.7847 15.2533V17.3133C16.7822 19.4979 15.9132 21.5923 14.3685 23.1371C12.8237 24.6818 10.7293 25.5508 8.54469 25.5533ZM4.42469 17.3133C4.42469 18.406 4.85876 19.4539 5.63141 20.2266C6.40406 20.9992 7.452 21.4333 8.54469 21.4333C9.63738 21.4333 10.6853 20.9992 11.458 20.2266C12.2306 19.4539 12.6647 18.406 12.6647 17.3133H4.42469Z" fill="black"/>
<path d="M20.9021 25.5533C18.7175 25.5508 16.6231 24.6818 15.0783 23.1371C13.5335 21.5923 12.6646 19.4979 12.6621 17.3133V15.2533C12.6621 14.707 12.8791 14.183 13.2655 13.7967C13.6518 13.4104 14.1758 13.1934 14.7221 13.1934H27.0821C27.3527 13.1933 27.6206 13.2465 27.8705 13.35C28.1205 13.4535 28.3476 13.6053 28.5389 13.7966C28.7302 13.9879 28.8819 14.215 28.9854 14.4649C29.0889 14.7149 29.1422 14.9828 29.1421 15.2533V17.3133C29.1398 19.498 28.2709 21.5925 26.7261 23.1373C25.1813 24.6821 23.0868 25.5509 20.9021 25.5533ZM16.7821 17.3133C16.7821 18.406 17.2162 19.4539 17.9888 20.2266C18.7615 20.9992 19.8094 21.4333 20.9021 21.4333C21.9948 21.4333 23.0427 20.9992 23.8154 20.2266C24.588 19.4539 25.0221 18.406 25.0221 17.3133H16.7821Z" fill="black"/>
<path d="M33.2615 25.5533C31.0768 25.5509 28.9823 24.6821 27.4375 23.1373C25.8927 21.5925 25.0238 19.498 25.0215 17.3133V15.2533C25.0214 14.9828 25.0746 14.7149 25.1781 14.4649C25.2816 14.215 25.4334 13.9879 25.6247 13.7966C25.816 13.6053 26.0431 13.4535 26.2931 13.35C26.543 13.2465 26.8109 13.1933 27.0815 13.1934H39.4415C39.712 13.1933 39.9799 13.2465 40.2299 13.35C40.4799 13.4535 40.707 13.6053 40.8983 13.7966C41.0896 13.9879 41.2413 14.215 41.3448 14.4649C41.4483 14.7149 41.5016 14.9828 41.5015 15.2533V17.3133C41.4992 19.498 40.6303 21.5925 39.0855 23.1373C37.5407 24.6821 35.4462 25.5509 33.2615 25.5533ZM29.1415 17.3133C29.1415 18.406 29.5756 19.4539 30.3482 20.2266C31.1209 20.9992 32.1688 21.4333 33.2615 21.4333C34.3542 21.4333 35.4021 20.9992 36.1748 20.2266C36.9474 19.4539 37.3815 18.406 37.3815 17.3133H29.1415Z" fill="black"/>
<path d="M14.7249 17.3158H2.3649C2.04407 17.3158 1.72768 17.2408 1.44093 17.0969C1.15418 16.953 0.904998 16.7442 0.713234 16.487C0.521471 16.2297 0.392424 15.9313 0.336374 15.6154C0.280324 15.2995 0.298819 14.9749 0.390387 14.6674L4.07385 2.30751C4.20066 1.88233 4.46132 1.50944 4.81708 1.2443C5.17283 0.979159 5.60467 0.835938 6.04836 0.835938H15.9531C16.2408 0.835896 16.5254 0.896148 16.7884 1.01281C17.0515 1.12947 17.2872 1.29996 17.4803 1.51327C17.6734 1.72659 17.8197 1.978 17.9098 2.25132C17.9998 2.52463 18.0315 2.81377 18.003 3.10011L16.7748 15.46C16.7243 15.9685 16.4864 16.4401 16.1076 16.7831C15.7287 17.126 15.2359 17.3159 14.7249 17.3158ZM5.128 13.1958H12.859L13.6778 4.95591H7.58432L5.128 13.1958Z" fill="black"/>
<path d="M27.0822 17.3158H14.7222C14.4345 17.3159 14.1499 17.2556 13.8868 17.1389C13.6238 17.0223 13.3881 16.8518 13.195 16.6385C13.0018 16.4252 12.8555 16.1737 12.7655 15.9004C12.6755 15.6271 12.6437 15.338 12.6723 15.0516L13.9004 2.69174C13.951 2.18322 14.1888 1.71167 14.5677 1.3687C14.9465 1.02574 15.4393 0.83585 15.9504 0.835938H25.8551C26.3662 0.836051 26.8591 1.02614 27.2379 1.36928C27.6167 1.71242 27.8545 2.18412 27.905 2.69275L29.1322 15.0527C29.1606 15.3389 29.1287 15.628 29.0387 15.9012C28.9486 16.1744 28.8023 16.4257 28.6091 16.6389C28.416 16.8521 28.1804 17.0225 27.9174 17.1391C27.6544 17.2557 27.3699 17.3159 27.0822 17.3158ZM16.9975 13.1958H24.8069L23.9902 4.95591H17.8163L16.9975 13.1958Z" fill="black"/>
<path d="M39.444 17.3158H27.084C26.5729 17.3157 26.0801 17.1256 25.7012 16.7825C25.3224 16.4393 25.0846 15.9676 25.0341 15.459L23.807 3.0991C23.7785 2.81284 23.8104 2.52379 23.9005 2.25059C23.9906 1.97739 24.1369 1.72609 24.33 1.51288C24.5231 1.29967 24.7588 1.12928 25.0218 1.01269C25.2847 0.896094 25.5692 0.835885 25.8569 0.835938H35.7606C36.2042 0.835816 36.6359 0.979007 36.9916 1.24418C37.3472 1.50935 37.6076 1.88232 37.7341 2.30751L41.4175 14.6674C41.5093 14.9748 41.528 15.2994 41.4721 15.6154C41.4163 15.9313 41.2873 16.2298 41.0956 16.487C40.9039 16.7443 40.6548 16.9532 40.368 17.0971C40.0813 17.241 39.7649 17.3159 39.444 17.3158ZM28.9489 13.1958H36.6799L34.2257 4.95591H28.1322L28.9489 13.1958Z" fill="black"/>
<path d="M35.3272 42.0317H6.48719C5.39483 42.0306 4.34753 41.5962 3.57511 40.8238C2.8027 40.0514 2.36828 39.0041 2.36719 37.9118V21.9057C2.36719 21.3593 2.58422 20.8354 2.97055 20.4491C3.35687 20.0627 3.88084 19.8457 4.42719 19.8457C4.97353 19.8457 5.4975 20.0627 5.88383 20.4491C6.27015 20.8354 6.48719 21.3593 6.48719 21.9057V37.9118H35.3272V21.9057C35.3272 21.3593 35.5442 20.8354 35.9305 20.4491C36.3169 20.0627 36.8408 19.8457 37.3872 19.8457C37.9335 19.8457 38.4575 20.0627 38.8438 20.4491C39.2302 20.8354 39.4472 21.3593 39.4472 21.9057V37.9118C39.4459 39.0041 39.0115 40.0513 38.2391 40.8236C37.4667 41.596 36.4195 42.0305 35.3272 42.0317Z" fill="black"/>
<path d="M37.3833 17.3133H4.42328C3.87694 17.3133 3.35297 17.0963 2.96664 16.71C2.58032 16.3237 2.36328 15.7997 2.36328 15.2533C2.36328 14.707 2.58032 14.183 2.96664 13.7967C3.35297 13.4104 3.87694 13.1934 4.42328 13.1934H37.3833C37.9296 13.1934 38.4536 13.4104 38.8399 13.7967C39.2262 14.183 39.4433 14.707 39.4433 15.2533C39.4433 15.7997 39.2262 16.3237 38.8399 16.71C38.4536 17.0963 37.9296 17.3133 37.3833 17.3133Z" fill="black"/>
<path d="M23.9959 33.7958H17.8159C17.2695 33.7958 16.7455 33.5787 16.3592 33.1924C15.9729 32.8061 15.7559 32.2821 15.7559 31.7358C15.7559 31.1894 15.9729 30.6655 16.3592 30.2791C16.7455 29.8928 17.2695 29.6758 17.8159 29.6758H23.9959C24.5422 29.6758 25.0662 29.8928 25.4525 30.2791C25.8388 30.6655 26.0559 31.1894 26.0559 31.7358C26.0559 32.2821 25.8388 32.8061 25.4525 33.1924C25.0662 33.5787 24.5422 33.7958 23.9959 33.7958Z" fill="black"/>
</svg>
