<svg width="49" height="37" viewBox="0 0 49 37" fill="none" xmlns="http://www.w3.org/2000/svg">
<path d="M24.9036 18.6843C23.8302 18.6843 22.7809 19.0026 21.8884 19.599C20.9959 20.1953 20.3003 21.0429 19.8895 22.0346C19.4787 23.0263 19.3713 24.1175 19.5807 25.1703C19.7901 26.2231 20.307 27.1901 21.066 27.9491C21.825 28.7081 22.792 29.225 23.8448 29.4344C24.8975 29.6438 25.9888 29.5363 26.9805 29.1256C27.9721 28.7148 28.8197 28.0192 29.4161 27.1267C30.0124 26.2342 30.3307 25.1849 30.3307 24.1115C30.3307 22.6721 29.7589 21.2917 28.7412 20.2739C27.7234 19.2561 26.3429 18.6843 24.9036 18.6843ZM24.9036 25.9206C24.5458 25.9206 24.196 25.8145 23.8985 25.6157C23.601 25.4169 23.3691 25.1344 23.2322 24.8038C23.0953 24.4733 23.0595 24.1095 23.1293 23.7586C23.1991 23.4077 23.3714 23.0853 23.6244 22.8323C23.8774 22.5793 24.1997 22.407 24.5506 22.3372C24.9016 22.2674 25.2653 22.3032 25.5959 22.4402C25.9264 22.5771 26.209 22.809 26.4077 23.1065C26.6065 23.404 26.7126 23.7537 26.7126 24.1115C26.7126 24.5913 26.522 25.0515 26.1828 25.3907C25.8435 25.73 25.3834 25.9206 24.9036 25.9206ZM23.6191 14.5416C23.7912 14.7063 23.9941 14.8354 24.2161 14.9215C24.4327 15.0172 24.6668 15.0666 24.9036 15.0666C25.1403 15.0666 25.3745 15.0172 25.591 14.9215C25.8131 14.8354 26.0159 14.7063 26.188 14.5416L30.3307 10.4712C30.681 10.121 30.8778 9.64593 30.8778 9.1506C30.8778 8.65527 30.681 8.18023 30.3307 7.82999C29.9805 7.47974 29.5055 7.28297 29.0101 7.28297C28.5148 7.28297 28.0398 7.47974 27.6895 7.82999L26.7126 8.89733V2.40281C26.7126 1.92302 26.522 1.46288 26.1828 1.12361C25.8435 0.784347 25.3834 0.59375 24.9036 0.59375C24.4238 0.59375 23.9636 0.784347 23.6244 1.12361C23.2851 1.46288 23.0945 1.92302 23.0945 2.40281V8.89733L22.1176 7.82999C21.7674 7.47974 21.2923 7.28297 20.797 7.28297C20.3017 7.28297 19.8266 7.47974 19.4764 7.82999C19.1261 8.18023 18.9294 8.65527 18.9294 9.1506C18.9294 9.64593 19.1261 10.121 19.4764 10.4712L23.6191 14.5416ZM37.567 24.1115C37.567 23.7537 37.4609 23.404 37.2621 23.1065C37.0633 22.809 36.7808 22.5771 36.4502 22.4402C36.1197 22.3032 35.7559 22.2674 35.405 22.3372C35.0541 22.407 34.7317 22.5793 34.4787 22.8323C34.2257 23.0853 34.0534 23.4077 33.9836 23.7586C33.9138 24.1095 33.9496 24.4733 34.0866 24.8038C34.2235 25.1344 34.4554 25.4169 34.7529 25.6157C35.0504 25.8145 35.4001 25.9206 35.7579 25.9206C36.2377 25.9206 36.6979 25.73 37.0371 25.3907C37.3764 25.0515 37.567 24.5913 37.567 24.1115ZM39.376 11.4481H33.9489C33.4691 11.4481 33.0089 11.6387 32.6697 11.978C32.3304 12.3172 32.1398 12.7774 32.1398 13.2572C32.1398 13.737 32.3304 14.1971 32.6697 14.5364C33.0089 14.8756 33.4691 15.0662 33.9489 15.0662H39.376C39.8558 15.0662 40.316 15.2568 40.6552 15.5961C40.9945 15.9353 41.1851 16.3955 41.1851 16.8753V31.3478C41.1851 31.8275 40.9945 32.2877 40.6552 32.627C40.316 32.9662 39.8558 33.1568 39.376 33.1568H10.4311C9.95129 33.1568 9.49115 32.9662 9.15189 32.627C8.81262 32.2877 8.62203 31.8275 8.62203 31.3478V16.8753C8.62203 16.3955 8.81262 15.9353 9.15189 15.5961C9.49115 15.2568 9.95129 15.0662 10.4311 15.0662H15.8583C16.3381 15.0662 16.7982 14.8756 17.1375 14.5364C17.4767 14.1971 17.6673 13.737 17.6673 13.2572C17.6673 12.7774 17.4767 12.3172 17.1375 11.978C16.7982 11.6387 16.3381 11.4481 15.8583 11.4481H10.4311C8.99171 11.4481 7.61128 12.0199 6.59349 13.0377C5.5757 14.0555 5.00391 15.4359 5.00391 16.8753V31.3478C5.00391 32.7871 5.5757 34.1676 6.59349 35.1853C7.61128 36.2031 8.99171 36.7749 10.4311 36.7749H39.376C40.8154 36.7749 42.1958 36.2031 43.2136 35.1853C44.2314 34.1676 44.8032 32.7871 44.8032 31.3478V16.8753C44.8032 15.4359 44.2314 14.0555 43.2136 13.0377C42.1958 12.0199 40.8154 11.4481 39.376 11.4481ZM12.2401 24.1115C12.2401 24.4693 12.3462 24.8191 12.545 25.1166C12.7438 25.4141 13.0263 25.6459 13.3569 25.7829C13.6875 25.9198 14.0512 25.9556 14.4021 25.8858C14.7531 25.816 15.0754 25.6437 15.3284 25.3907C15.5814 25.1377 15.7537 24.8154 15.8235 24.4644C15.8933 24.1135 15.8575 23.7498 15.7206 23.4192C15.5836 23.0887 15.3518 22.8061 15.0543 22.6073C14.7568 22.4086 14.407 22.3025 14.0492 22.3025C13.5694 22.3025 13.1093 22.4931 12.77 22.8323C12.4307 23.1716 12.2401 23.6317 12.2401 24.1115Z" fill="black"/>
</svg>
