<svg width="49" height="37" viewBox="0 0 49 37" fill="none" xmlns="http://www.w3.org/2000/svg">
<path d="M24.4036 18.6853C23.3302 18.6853 22.2809 19.0036 21.3884 19.6C20.4959 20.1963 19.8003 21.0439 19.3895 22.0356C18.9787 23.0273 18.8713 24.1185 19.0807 25.1713C19.2901 26.2241 19.807 27.1911 20.566 27.9501C21.325 28.7091 22.292 29.226 23.3448 29.4354C24.3975 29.6448 25.4888 29.5373 26.4805 29.1266C27.4721 28.7158 28.3197 28.0202 28.9161 27.1277C29.5124 26.2352 29.8307 25.1859 29.8307 24.1125C29.8307 22.6731 29.2589 21.2927 28.2412 20.2749C27.2234 19.2571 25.8429 18.6853 24.4036 18.6853ZM24.4036 25.9216C24.0458 25.9216 23.696 25.8155 23.3985 25.6167C23.101 25.4179 22.8691 25.1354 22.7322 24.8048C22.5953 24.4742 22.5595 24.1105 22.6293 23.7596C22.6991 23.4086 22.8714 23.0863 23.1244 22.8333C23.3774 22.5803 23.6997 22.408 24.0506 22.3382C24.4016 22.2684 24.7653 22.3042 25.0959 22.4411C25.4264 22.5781 25.709 22.8099 25.9077 23.1074C26.1065 23.4049 26.2126 23.7547 26.2126 24.1125C26.2126 24.5923 26.022 25.0524 25.6828 25.3917C25.3435 25.731 24.8834 25.9216 24.4036 25.9216ZM23.1191 14.5426C23.2912 14.7073 23.4941 14.8364 23.7161 14.9225C23.9327 15.0182 24.1668 15.0676 24.4036 15.0676C24.6403 15.0676 24.8745 15.0182 25.091 14.9225C25.3131 14.8364 25.5159 14.7073 25.688 14.5426L29.8307 10.4722C30.181 10.1219 30.3778 9.6469 30.3778 9.15158C30.3778 8.65625 30.181 8.18121 29.8307 7.83096C29.4805 7.48071 29.0055 7.28395 28.5101 7.28395C28.0148 7.28395 27.5398 7.48071 27.1895 7.83096L26.2126 8.89831V2.40379C26.2126 1.92399 26.022 1.46385 25.6828 1.12459C25.3435 0.785323 24.8834 0.594727 24.4036 0.594727C23.9238 0.594727 23.4636 0.785323 23.1244 1.12459C22.7851 1.46385 22.5945 1.92399 22.5945 2.40379V8.89831L21.6176 7.83096C21.2674 7.48071 20.7923 7.28395 20.297 7.28395C19.8017 7.28395 19.3266 7.48071 18.9764 7.83096C18.6261 8.18121 18.4294 8.65625 18.4294 9.15158C18.4294 9.6469 18.6261 10.1219 18.9764 10.4722L23.1191 14.5426ZM37.067 24.1125C37.067 23.7547 36.9609 23.4049 36.7621 23.1074C36.5633 22.8099 36.2808 22.5781 35.9502 22.4411C35.6197 22.3042 35.2559 22.2684 34.905 22.3382C34.5541 22.408 34.2317 22.5803 33.9787 22.8333C33.7257 23.0863 33.5534 23.4086 33.4836 23.7596C33.4138 24.1105 33.4496 24.4742 33.5866 24.8048C33.7235 25.1354 33.9554 25.4179 34.2529 25.6167C34.5504 25.8155 34.9001 25.9216 35.2579 25.9216C35.7377 25.9216 36.1979 25.731 36.5371 25.3917C36.8764 25.0524 37.067 24.5923 37.067 24.1125ZM38.876 11.4491H33.4489C32.9691 11.4491 32.5089 11.6397 32.1697 11.9789C31.8304 12.3182 31.6398 12.7783 31.6398 13.2581C31.6398 13.7379 31.8304 14.1981 32.1697 14.5373C32.5089 14.8766 32.9691 15.0672 33.4489 15.0672H38.876C39.3558 15.0672 39.816 15.2578 40.1552 15.5971C40.4945 15.9363 40.6851 16.3965 40.6851 16.8763V31.3487C40.6851 31.8285 40.4945 32.2887 40.1552 32.6279C39.816 32.9672 39.3558 33.1578 38.876 33.1578H9.93108C9.45129 33.1578 8.99115 32.9672 8.65189 32.6279C8.31262 32.2887 8.12203 31.8285 8.12203 31.3487V16.8763C8.12203 16.3965 8.31262 15.9363 8.65189 15.5971C8.99115 15.2578 9.45129 15.0672 9.93108 15.0672H15.3583C15.8381 15.0672 16.2982 14.8766 16.6375 14.5373C16.9767 14.1981 17.1673 13.7379 17.1673 13.2581C17.1673 12.7783 16.9767 12.3182 16.6375 11.9789C16.2982 11.6397 15.8381 11.4491 15.3583 11.4491H9.93108C8.49171 11.4491 7.11128 12.0209 6.09349 13.0387C5.0757 14.0565 4.50391 15.4369 4.50391 16.8763V31.3487C4.50391 32.7881 5.0757 34.1685 6.09349 35.1863C7.11128 36.2041 8.49171 36.7759 9.93108 36.7759H38.876C40.3154 36.7759 41.6958 36.2041 42.7136 35.1863C43.7314 34.1685 44.3032 32.7881 44.3032 31.3487V16.8763C44.3032 15.4369 43.7314 14.0565 42.7136 13.0387C41.6958 12.0209 40.3154 11.4491 38.876 11.4491ZM11.7401 24.1125C11.7401 24.4703 11.8462 24.8201 12.045 25.1176C12.2438 25.4151 12.5263 25.6469 12.8569 25.7838C13.1875 25.9208 13.5512 25.9566 13.9021 25.8868C14.2531 25.817 14.5754 25.6447 14.8284 25.3917C15.0814 25.1387 15.2537 24.8163 15.3235 24.4654C15.3933 24.1145 15.3575 23.7508 15.2206 23.4202C15.0836 23.0896 14.8518 22.8071 14.5543 22.6083C14.2568 22.4095 13.907 22.3034 13.5492 22.3034C13.0694 22.3034 12.6093 22.494 12.27 22.8333C11.9307 23.1726 11.7401 23.6327 11.7401 24.1125Z" fill="white"/>
</svg>
