<svg width="28" height="28" viewBox="0 0 28 28" fill="none" xmlns="http://www.w3.org/2000/svg">
<path d="M13.9974 1.16699C11.4592 1.16699 8.97801 1.91965 6.86758 3.3298C4.75715 4.73994 3.11227 6.74424 2.14095 9.08922C1.16962 11.4342 0.91548 14.0146 1.41066 16.504C1.90583 18.9934 3.12809 21.2801 4.92286 23.0749C6.71764 24.8696 9.00432 26.0919 11.4937 26.5871C13.9832 27.0822 16.5635 26.8281 18.9085 25.8568C21.2535 24.8855 23.2578 23.2406 24.6679 21.1301C26.0781 19.0197 26.8307 16.5385 26.8307 14.0003C26.8287 10.5973 25.476 7.33432 23.0697 4.92804C20.6634 2.52177 17.4004 1.16903 13.9974 1.16699ZM20.6556 11.8083L15.3054 17.1585C14.6486 17.8141 13.7586 18.1823 12.8307 18.1823C11.9028 18.1823 11.0128 17.8141 10.3561 17.1585L7.33923 14.1416C7.22819 14.0339 7.13967 13.9052 7.07884 13.7629C7.01801 13.6207 6.98607 13.4678 6.98489 13.3131C6.98371 13.1584 7.0133 13.005 7.07196 12.8618C7.13061 12.7187 7.21715 12.5886 7.32653 12.4792C7.43592 12.3698 7.56597 12.2833 7.70912 12.2246C7.85227 12.166 8.00565 12.1364 8.16035 12.1375C8.31505 12.1387 8.46797 12.1706 8.61021 12.2315C8.75246 12.2923 8.88118 12.3808 8.9889 12.4918L12.0059 15.5088C12.2249 15.7271 12.5215 15.8497 12.8307 15.8497C13.14 15.8497 13.4366 15.7271 13.6556 15.5088L19.0059 10.1585C19.1136 10.0475 19.2423 9.95895 19.3846 9.89813C19.5268 9.8373 19.6798 9.80538 19.8345 9.8042C19.9891 9.80303 20.1425 9.83264 20.2857 9.8913C20.4288 9.94997 20.5589 10.0365 20.6683 10.1459C20.7777 10.2553 20.8642 10.3854 20.9228 10.5285C20.9815 10.6717 21.0111 10.8251 21.0099 10.9798C21.0087 11.1344 20.9768 11.2874 20.916 11.4296C20.8551 11.5718 20.7666 11.7006 20.6556 11.8083Z" fill="#04BA00"/>
</svg>
