<svg width="45" height="46" viewBox="0 0 45 46" fill="none" xmlns="http://www.w3.org/2000/svg">
<path d="M45.0024 12.1988C45.0024 6.00402 39.9621 0.962891 33.7665 0.962891C29.2323 0.962891 25.3266 3.66803 23.5526 7.54421L19.9841 5.92251C19.5624 5.73127 19.0781 5.73127 18.6564 5.92251L0.999887 13.9482C0.426176 14.2084 0.0585938 14.779 0.0585938 15.4091V36.2759C0.0585938 36.906 0.426176 37.4766 0.999887 37.7368L18.6564 45.7625C18.8672 45.8581 19.0937 45.9067 19.3202 45.9067C19.5467 45.9067 19.7732 45.8581 19.9841 45.7625L37.6406 37.7368C38.2143 37.4766 38.5819 36.906 38.5819 36.2759V22.3351C42.3712 20.5271 45.0024 16.6691 45.0024 12.1988ZM19.3202 9.14689L22.6488 10.6589C22.5791 11.1637 22.5305 11.6751 22.5305 12.1988C22.5305 14.8102 23.4338 17.2104 24.9341 19.1205L19.3202 21.6713L5.54255 15.4091L19.3202 9.14689ZM3.26887 17.9014L17.7151 24.4679V41.8086L3.26887 35.2429V17.9014ZM35.3716 35.2429L20.9254 41.8086V24.4679L27.4653 21.4956C29.2637 22.7184 31.4326 23.4348 33.7665 23.4348C34.3128 23.4348 34.8459 23.3823 35.3716 23.3066V35.2429ZM33.7665 20.2245C29.3414 20.2245 25.7408 16.6239 25.7408 12.1988C25.7408 7.77375 29.3414 4.17316 33.7665 4.17316C38.1916 4.17316 41.7921 7.77375 41.7921 12.1988C41.7921 16.6239 38.1916 20.2245 33.7665 20.2245Z" fill="black"/>
<path d="M38.5836 10.5918H35.3733V7.3815C35.3733 6.49429 34.6546 5.77637 33.7682 5.77637C32.8818 5.77637 32.1631 6.49429 32.1631 7.3815V10.5918H28.9528C28.0664 10.5918 27.3477 11.3097 27.3477 12.1969C27.3477 13.0841 28.0664 13.802 28.9528 13.802H32.1631V17.0123C32.1631 17.8995 32.8818 18.6175 33.7682 18.6175C34.6546 18.6175 35.3733 17.8995 35.3733 17.0123V13.802H38.5836C39.47 13.802 40.1887 13.0841 40.1887 12.1969C40.1887 11.3097 39.47 10.5918 38.5836 10.5918Z" fill="black"/>
</svg>
