<svg width="45" height="46" viewBox="0 0 45 46" fill="none" xmlns="http://www.w3.org/2000/svg">
<path d="M44.9438 11.9703C44.9438 5.77551 39.9035 0.734375 33.7079 0.734375C29.1737 0.734375 25.268 3.43952 23.494 7.31569L19.9255 5.694C19.5038 5.50276 19.0195 5.50276 18.5978 5.694L0.941293 13.7197C0.367582 13.9799 0 14.5505 0 15.1806V36.0474C0 36.6775 0.367582 37.2481 0.941293 37.5083L18.5978 45.534C18.8086 45.6296 19.0351 45.6782 19.2616 45.6782C19.4881 45.6782 19.7147 45.6296 19.9255 45.534L37.582 37.5083C38.1557 37.2481 38.5233 36.6775 38.5233 36.0474V22.1066C42.3126 20.2985 44.9438 16.4406 44.9438 11.9703ZM19.2616 8.91838L22.5902 10.4303C22.5205 10.9352 22.4719 11.4466 22.4719 11.9703C22.4719 14.5817 23.3752 16.9819 24.8755 18.892L19.2616 21.4428L5.48396 15.1806L19.2616 8.91838ZM3.21027 17.6729L17.6565 24.2394V41.5801L3.21027 35.0144V17.6729ZM35.313 35.0144L20.8668 41.5801V24.2394L27.4067 21.2671C29.2051 22.4899 31.374 23.2063 33.7079 23.2063C34.2542 23.2063 34.7873 23.1538 35.313 23.078V35.0144ZM33.7079 19.996C29.2828 19.996 25.6822 16.3954 25.6822 11.9703C25.6822 7.54523 29.2828 3.94465 33.7079 3.94465C38.133 3.94465 41.7336 7.54523 41.7336 11.9703C41.7336 16.3954 38.133 19.996 33.7079 19.996Z" fill="white"/>
</svg>
