<svg width="25" height="24" viewBox="0 0 25 24" fill="none" xmlns="http://www.w3.org/2000/svg">
<g clip-path="url(#clip0_1366_2814)">
<path d="M14.496 11.8857C14.496 13.0091 13.5853 13.9199 12.4619 13.9199C11.3385 13.9199 10.4277 13.0091 10.4277 11.8857C10.4277 10.7623 11.3385 9.85156 12.4619 9.85156C13.5853 9.85156 14.496 10.7623 14.496 11.8857Z" fill="#797979" fill-opacity="0.6"/>
<path d="M15.8976 5.7373H9.02665C7.53106 5.7373 6.31445 6.95391 6.31445 8.4495V15.3204C6.31445 16.816 7.53106 18.0326 9.02665 18.0326H15.8976C17.3932 18.0326 18.6098 16.816 18.6098 15.3204V8.4495C18.6098 6.95391 17.3932 5.7373 15.8976 5.7373ZM12.4621 15.2752C10.5927 15.2752 9.07186 13.7544 9.07186 11.885C9.07186 10.0156 10.5927 8.49471 12.4621 8.49471C14.3315 8.49471 15.8524 10.0156 15.8524 11.885C15.8524 13.7544 14.3315 15.2752 12.4621 15.2752ZM16.3496 8.67552C15.9751 8.67552 15.6715 8.37199 15.6715 7.99747C15.6715 7.62295 15.9751 7.31942 16.3496 7.31942C16.7241 7.31942 17.0276 7.62295 17.0276 7.99747C17.0276 8.37199 16.7241 8.67552 16.3496 8.67552Z" fill="#797979" fill-opacity="0.6"/>
<path d="M17.9323 0.3125H6.99307C3.62825 0.3125 0.890625 3.05013 0.890625 6.41495V17.3542C0.890625 20.719 3.62825 23.4566 6.99307 23.4566H17.9323C21.2971 23.4566 24.0347 20.719 24.0347 17.3542V6.41495C24.0347 3.05013 21.2971 0.3125 17.9323 0.3125ZM19.9664 15.32C19.9664 17.5632 18.1413 19.3883 15.8981 19.3883H9.02722C6.78401 19.3883 4.95892 17.5632 4.95892 15.32V8.4491C4.95892 6.20588 6.78401 4.3808 9.02722 4.3808H15.8981C18.1413 4.3808 19.9664 6.20588 19.9664 8.4491V15.32Z" fill="#797979" fill-opacity="0.6"/>
</g>
<defs>
<clipPath id="clip0_1366_2814">
<rect width="23.1441" height="23.1441" fill="white" transform="translate(0.890625 0.3125)"/>
</clipPath>
</defs>
</svg>
