<svg width="24" height="24" viewBox="0 0 24 24" fill="none" xmlns="http://www.w3.org/2000/svg">
<g clip-path="url(#clip0_1366_2823)">
<path d="M20.8436 0.320312H4.01148C3.17446 0.320313 2.37171 0.65282 1.77984 1.24469C1.18798 1.83656 0.855469 2.6393 0.855469 3.47633L0.855469 20.3084C0.855469 21.1454 1.18798 21.9482 1.77984 22.54C2.37171 23.1319 3.17446 23.4644 4.01148 23.4644H20.8436C21.6806 23.4644 22.4833 23.1319 23.0752 22.54C23.6671 21.9482 23.9996 21.1454 23.9996 20.3084V3.47633C23.9996 2.6393 23.6671 1.83656 23.0752 1.24469C22.4833 0.65282 21.6806 0.320313 20.8436 0.320312ZM8.7455 18.6357C8.74568 18.6999 8.73319 18.7635 8.70875 18.8228C8.68431 18.8822 8.6484 18.9361 8.60308 18.9815C8.55776 19.027 8.50392 19.063 8.44464 19.0876C8.38536 19.1122 8.32182 19.1249 8.25764 19.1249H6.17861C6.11432 19.1251 6.05063 19.1125 5.99121 19.088C5.93178 19.0635 5.87778 19.0275 5.83232 18.982C5.78686 18.9365 5.75084 18.8825 5.72631 18.8231C5.70179 18.7637 5.68926 18.7 5.68943 18.6357V9.91986C5.68943 9.79012 5.74097 9.66569 5.83271 9.57395C5.92445 9.48221 6.04887 9.43067 6.17861 9.43067H8.25764C8.38715 9.43102 8.51124 9.48271 8.60269 9.57442C8.69415 9.66612 8.7455 9.79034 8.7455 9.91986V18.6357ZM7.21747 8.60485C6.82734 8.60485 6.44598 8.48916 6.1216 8.27242C5.79722 8.05568 5.5444 7.74762 5.39511 7.38719C5.24581 7.02676 5.20675 6.63015 5.28286 6.24752C5.35897 5.86489 5.54683 5.51343 5.82269 5.23757C6.09855 4.96171 6.45002 4.77384 6.83265 4.69773C7.21528 4.62162 7.61188 4.66069 7.97231 4.80998C8.33274 4.95927 8.64081 5.2121 8.85755 5.53647C9.07429 5.86085 9.18998 6.24222 9.18998 6.63234C9.18998 7.15548 8.98216 7.6572 8.61224 8.02711C8.24232 8.39703 7.74061 8.60485 7.21747 8.60485ZM19.6127 18.6699C19.6129 18.729 19.6014 18.7876 19.5788 18.8422C19.5563 18.8969 19.5232 18.9465 19.4814 18.9883C19.4396 19.0301 19.3899 19.0632 19.3353 19.0858C19.2806 19.1083 19.2221 19.1198 19.163 19.1196H16.9275C16.8684 19.1198 16.8098 19.1083 16.7552 19.0858C16.7005 19.0632 16.6509 19.0301 16.6091 18.9883C16.5673 18.9465 16.5342 18.8969 16.5116 18.8422C16.4891 18.7876 16.4776 18.729 16.4777 18.6699V14.5868C16.4777 13.9766 16.6566 11.9147 14.8826 11.9147C13.5085 11.9147 13.2284 13.3257 13.1731 13.9596V18.6752C13.1731 18.7933 13.1267 18.9067 13.0437 18.9909C12.9608 19.075 12.8481 19.1232 12.73 19.1249H10.5707C10.5117 19.1249 10.4533 19.1133 10.3988 19.0906C10.3443 19.068 10.2948 19.0349 10.2532 18.9931C10.2115 18.9513 10.1785 18.9017 10.1561 18.8472C10.1336 18.7926 10.1221 18.7342 10.1223 18.6752V9.88172C10.1221 9.82272 10.1336 9.76427 10.1561 9.70971C10.1785 9.65516 10.2115 9.60557 10.2532 9.56379C10.2948 9.52201 10.3443 9.48886 10.3988 9.46625C10.4533 9.44363 10.5117 9.43199 10.5707 9.43199H12.73C12.8492 9.43199 12.9636 9.47937 13.048 9.56371C13.1323 9.64805 13.1797 9.76244 13.1797 9.88172V10.6418C13.6899 9.87514 14.4461 9.28602 16.0596 9.28602C19.6338 9.28602 19.6101 12.6235 19.6101 14.4566L19.6127 18.6699Z" fill="#797979" fill-opacity="0.6"/>
</g>
<defs>
<clipPath id="clip0_1366_2823">
<rect width="23.1441" height="23.1441" fill="white" transform="translate(0.855469 0.3125)"/>
</clipPath>
</defs>
</svg>
