<svg width="29" height="28" viewBox="0 0 29 28" fill="none" xmlns="http://www.w3.org/2000/svg">
<path d="M23.7389 2.31348H5.59658C4.21543 2.31348 3.0957 3.43321 3.0957 4.81436V22.9567C3.0957 24.3379 4.21543 25.4576 5.59658 25.4576H23.7389C25.1201 25.4576 26.2398 24.3379 26.2398 22.9567V4.81436C26.2398 3.43321 25.1201 2.31348 23.7389 2.31348ZM21.8069 12.3956C20.3418 12.3956 18.9841 11.9269 17.8757 11.1314V16.8731C17.8757 19.7411 15.5428 22.074 12.6753 22.074C11.5673 22.074 10.5397 21.7245 9.69489 21.1313C8.35392 20.1899 7.47484 18.6326 7.47484 16.8731C7.47484 14.0056 9.80776 11.6727 12.6753 11.6727C12.9132 11.6727 13.1466 11.6921 13.376 11.7233V14.6079C13.1543 14.5384 12.9195 14.4982 12.6753 14.4982C11.3655 14.4982 10.3004 15.5638 10.3004 16.8731C10.3004 17.7852 10.8173 18.5776 11.5736 18.9753C11.9032 19.1492 12.2775 19.2485 12.6753 19.2485C13.9548 19.2485 14.9983 18.2308 15.0457 16.9625L15.0502 5.63926H17.8757C17.8757 5.88397 17.8996 6.12327 17.9425 6.35579C18.1421 7.43263 18.781 8.35596 19.6659 8.93343C20.2827 9.33527 21.0177 9.57005 21.8069 9.57005V12.3956Z" fill="#797979" fill-opacity="0.6"/>
</svg>
