<svg width="24" height="24" viewBox="0 0 24 24" fill="none" xmlns="http://www.w3.org/2000/svg">
<path d="M22.2993 6.46992C22.0493 5.54038 21.3164 4.80764 20.387 4.55734C18.6891 4.09277 11.8974 4.09277 11.8974 4.09277C11.8974 4.09277 5.10587 4.09277 3.40797 4.53973C2.49644 4.78976 1.74568 5.54052 1.49565 6.46992C1.04883 8.16769 1.04883 11.6887 1.04883 11.6887C1.04883 11.6887 1.04883 15.2274 1.49565 16.9074C1.74595 17.8368 2.47856 18.5695 3.4081 18.8198C5.12375 19.2845 11.8976 19.2845 11.8976 19.2845C11.8976 19.2845 18.6891 19.2845 20.387 18.8376C21.3166 18.5874 22.0493 17.8547 22.2996 16.9253C22.7463 15.2274 22.7463 11.7065 22.7463 11.7065C22.7463 11.7065 22.7642 8.16769 22.2993 6.46992ZM9.73502 14.9414V8.43587L15.3827 11.6887L9.73502 14.9414Z" fill="#797979" fill-opacity="0.6"/>
</svg>
